<svg width="24" height="23" viewBox="0 0 24 23" fill="none" xmlns="http://www.w3.org/2000/svg">
<path d="M21.6004 3.67207C21.6004 3.00001 21.5999 2.66373 21.4691 2.40703C21.3541 2.18124 21.1712 1.99779 20.9454 1.88275C20.6887 1.75195 20.352 1.75195 19.6799 1.75195H4.31992C3.64786 1.75195 3.31216 1.75195 3.05547 1.88275C2.82967 1.99779 2.64623 2.18124 2.53118 2.40703C2.40039 2.66373 2.40039 3.00001 2.40039 3.67207V4.55678C2.40039 4.85029 2.40039 4.99715 2.43355 5.13526C2.46294 5.2577 2.51155 5.37466 2.57734 5.48203C2.65153 5.60309 2.75548 5.70704 2.96289 5.91445L9.03818 11.9897C9.24571 12.1973 9.34892 12.3005 9.42312 12.4216C9.48892 12.5289 9.53818 12.6463 9.56758 12.7687C9.6004 12.9054 9.60039 13.0506 9.60039 13.3381V19.0452C9.60039 20.0738 9.60039 20.5885 9.81704 20.8982C10.0062 21.1687 10.2981 21.3491 10.6246 21.3974C10.9986 21.4526 11.4588 21.2228 12.3789 20.7628L13.3389 20.2828C13.7242 20.0902 13.9163 19.9935 14.0571 19.8498C14.1816 19.7227 14.2768 19.5701 14.3348 19.402C14.4004 19.2118 14.4004 18.9959 14.4004 18.5652V13.3471C14.4004 13.0536 14.4004 12.9069 14.4335 12.7687C14.4629 12.6463 14.5115 12.5289 14.5773 12.4216C14.6511 12.3013 14.754 12.1984 14.9588 11.9936L14.9629 11.9897L21.0382 5.91445C21.2457 5.70691 21.3489 5.60313 21.4231 5.48203C21.4889 5.37466 21.5382 5.2577 21.5676 5.13526C21.6004 4.99856 21.6004 4.85328 21.6004 4.56571V3.67207Z" stroke="#E3FF32" stroke-width="2.244" stroke-linecap="round" stroke-linejoin="round"/>
</svg>
