<svg width="25" height="25" viewBox="0 0 25 25" fill="none" xmlns="http://www.w3.org/2000/svg">
<mask id="mask0_1773_1727" style="mask-type:alpha" maskUnits="userSpaceOnUse" x="2" y="0" width="21" height="25">
<path d="M18.684 6.22728C18.684 9.66652 15.896 12.4546 12.4568 12.4546C9.01764 12.4546 6.22963 9.66652 6.22963 6.22728C6.22963 2.78805 9.01764 0 12.4568 0C15.896 0 18.684 2.78805 18.684 6.22728Z" fill="#006FFD"/>
<path d="M2.07812 20.7582C2.07812 17.3189 4.86613 14.5309 8.30531 14.5309H16.6082C20.0474 14.5309 22.8354 17.3189 22.8354 20.7582V21.7961C22.8354 23.5157 21.4414 24.9097 19.7218 24.9097H5.19172C3.47213 24.9097 2.07812 23.5157 2.07812 21.7961V20.7582Z" fill="#006FFD"/>
</mask>
<g mask="url(#mask0_1773_1727)">
<rect y="-0.00195312" width="24.9087" height="24.9091" fill="white" fill-opacity="0.3"/>
</g>
</svg>
